<svg width="35" height="35" viewBox="0 0 35 35" fill="none" xmlns="http://www.w3.org/2000/svg">
<g clip-path="url(#clip0_2161_584)">
<path d="M17.5 0C7.83562 0 0 7.83562 0 17.5C0 27.1644 7.83562 35 17.5 35C27.1644 35 35 27.1644 35 17.5C35 7.83344 27.1644 0 17.5 0ZM22.0238 17.4978L19.1559 17.5L19.1537 28H15.2184V17.5H12.5934V13.8819L15.2184 13.8797L15.2141 11.7491C15.2141 8.79594 16.0147 7 19.4906 7H22.3869V10.6203H20.5756C19.2216 10.6203 19.1559 11.1256 19.1559 12.0684L19.1516 13.8797H22.4066L22.0238 17.4978Z" fill="white"/>
</g>
<defs>
<clipPath id="clip0_2161_584">
<rect width="35" height="35" fill="white"/>
</clipPath>
</defs>
</svg>
