<svg width="18" height="21" viewBox="0 0 18 21" fill="none" xmlns="http://www.w3.org/2000/svg">
<g clip-path="url(#clip0_2081_119)">
<path d="M5.14307 1.58203C5.14307 0.707959 5.86227 0 6.75022 0C7.63816 0 8.35736 0.707959 8.35736 1.58203V7.44346C8.69888 7.14287 9.14888 6.96094 9.64307 6.96094C10.4708 6.96094 11.1779 7.4751 11.4511 8.19492C11.8047 7.8271 12.3029 7.59375 12.8574 7.59375C13.8739 7.59375 14.7056 8.36499 14.7819 9.34585C15.1234 9.04131 15.5774 8.85937 16.0716 8.85937C17.1364 8.85937 18.0002 9.70972 18.0002 10.7578V12.6562V13.2891V15.1875C18.0002 17.9837 15.698 20.25 12.8574 20.25H12.2145H9.64307H9.63906H9.43013C9.22923 20.25 9.03236 20.2381 8.8395 20.2104C6.61763 19.989 4.57254 18.8657 3.2145 17.0859L0.321644 13.2891C-0.212731 12.589 -0.068088 11.6002 0.643073 11.0742C1.35423 10.5482 2.3587 10.6906 2.89307 11.3906L5.14307 14.3451V1.58203ZM9.64307 12.0234C9.64307 11.6754 9.35379 11.3906 9.00022 11.3906C8.64664 11.3906 8.35736 11.6754 8.35736 12.0234V15.8203C8.35736 16.1684 8.64664 16.4531 9.00022 16.4531C9.35379 16.4531 9.64307 16.1684 9.64307 15.8203V12.0234ZM11.5716 11.3906C11.2181 11.3906 10.9288 11.6754 10.9288 12.0234V15.8203C10.9288 16.1684 11.2181 16.4531 11.5716 16.4531C11.9252 16.4531 12.2145 16.1684 12.2145 15.8203V12.0234C12.2145 11.6754 11.9252 11.3906 11.5716 11.3906ZM14.7859 12.0234C14.7859 11.6754 14.4966 11.3906 14.1431 11.3906C13.7895 11.3906 13.5002 11.6754 13.5002 12.0234V15.8203C13.5002 16.1684 13.7895 16.4531 14.1431 16.4531C14.4966 16.4531 14.7859 16.1684 14.7859 15.8203V12.0234Z" fill="white"/>
</g>
<defs>
<clipPath id="clip0_2081_119">
<rect width="18" height="20.25" fill="white"/>
</clipPath>
</defs>
</svg>
