<svg width="35" height="35" viewBox="0 0 35 35" fill="none" xmlns="http://www.w3.org/2000/svg">
<g clip-path="url(#clip0_2161_578)">
<path d="M17.5 0C7.83562 0 0 7.83562 0 17.5C0 27.1644 7.83562 35 17.5 35C27.1644 35 35 27.1644 35 17.5C35 7.83344 27.1644 0 17.5 0ZM13.125 25.9766H8.75V10.6641H13.125V25.9766ZM11.0731 9.72563C9.94 9.72563 9.02344 8.80688 9.02344 7.67375C9.02344 6.54062 9.94219 5.62187 11.0731 5.62187C12.2062 5.62406 13.125 6.54281 13.125 7.67375C13.125 8.80688 12.2062 9.72563 11.0731 9.72563ZM28.4375 25.9766H24.0625V16.5091C24.0625 15.4 23.7453 14.6234 22.3825 14.6234C20.1228 14.6234 19.6875 16.5091 19.6875 16.5091V25.9766H15.3125V10.6641H19.6875V12.1275C20.3131 11.6484 21.875 10.6663 24.0625 10.6663C25.4822 10.6663 28.4375 11.515 28.4375 16.6425V25.9766Z" fill="white"/>
</g>
<defs>
<clipPath id="clip0_2161_578">
<rect width="35" height="35" fill="white"/>
</clipPath>
</defs>
</svg>
