<svg width="29" height="30" viewBox="0 0 29 30" fill="none" xmlns="http://www.w3.org/2000/svg">
<g id="mouse 1">
<path id="Vector" d="M14.4774 30C9.77383 30 5.94727 26.0415 5.94727 21.1757L5.94727 8.82431C5.94727 3.95851 9.77383 -3.14564e-06 14.4774 -2.32324e-06C19.181 -1.50083e-06 23.0076 3.95851 23.0076 8.82431L23.0076 21.1757C23.0076 26.0415 19.181 30 14.4774 30ZM21.2677 8.82431C21.2677 4.95117 18.2215 1.79993 14.4774 1.79992C10.7334 1.79992 7.6872 4.95117 7.6872 8.82431L7.6872 21.1757C7.6872 25.0488 10.7334 28.2001 14.4774 28.2001C18.2215 28.2001 21.2677 25.0488 21.2677 21.1757L21.2677 8.82431Z" fill="white"/>
<path id="Vector_2" d="M14.4774 24.0322C13.9968 24.0322 13.6074 23.6294 13.6074 23.1323L13.6074 18.99C13.6074 18.4931 13.9968 18.09 14.4774 18.09C14.9577 18.09 15.3474 18.4931 15.3474 18.99L15.3474 23.1323C15.3474 23.6294 14.9579 24.0322 14.4774 24.0322Z" fill="white"/>
</g>
</svg>
