<svg width="15" height="15" viewBox="0 0 15 15" fill="none" xmlns="http://www.w3.org/2000/svg">
<g clip-path="url(#clip0_2113_83)">
<path d="M6.37519 15.0002C6.34294 15.0002 6.30994 14.9957 6.27769 14.9875C6.11419 14.9432 6.00019 14.7947 6.00019 14.6252V9.00023H0.375188C0.205688 9.00023 0.0571883 8.88623 0.0129383 8.72273C-0.0313117 8.55923 0.0406883 8.38598 0.186938 8.30123L14.4369 0.0512318C14.5839 -0.0335182 14.7699 -0.00951815 14.8899 0.110482C15.0099 0.230482 15.0347 0.416482 14.9492 0.563482L6.69919 14.8135C6.63094 14.9312 6.50569 15.0002 6.37444 15.0002H6.37519ZM1.77169 8.25023H6.37519C6.58219 8.25023 6.75019 8.41823 6.75019 8.62523V13.2287L13.5962 1.40423L1.77169 8.25023Z" fill="black"/>
</g>
<defs>
<clipPath id="clip0_2113_83">
<rect width="15" height="15" fill="white"/>
</clipPath>
</defs>
</svg>
