<svg width="15" height="15" viewBox="0 0 15 15" fill="none" xmlns="http://www.w3.org/2000/svg">
<g clip-path="url(#clip0_2129_87)">
<path d="M6.37519 15.0003C6.34294 15.0003 6.30994 14.9958 6.27769 14.9875C6.11419 14.9433 6.00019 14.7948 6.00019 14.6253V9.00029H0.375188C0.205688 9.00029 0.0571883 8.88629 0.0129383 8.72279C-0.0313117 8.55929 0.0406883 8.38604 0.186938 8.30129L14.4369 0.0512929C14.5839 -0.0334571 14.7699 -0.00945712 14.8899 0.110543C15.0099 0.230543 15.0347 0.416543 14.9492 0.563543L6.69919 14.8135C6.63094 14.9313 6.50569 15.0003 6.37444 15.0003H6.37519ZM1.77169 8.25029H6.37519C6.58219 8.25029 6.75019 8.41829 6.75019 8.62529V13.2288L13.5962 1.40429L1.77169 8.25029Z" fill="black"/>
</g>
<defs>
<clipPath id="clip0_2129_87">
<rect width="15" height="15" fill="white"/>
</clipPath>
</defs>
</svg>
