<svg width="35" height="35" viewBox="0 0 35 35" fill="none" xmlns="http://www.w3.org/2000/svg">
<g clip-path="url(#clip0_2161_575)">
<path d="M17.5 0C7.83562 0 0 7.83562 0 17.5C0 27.1644 7.83562 35 17.5 35C27.1644 35 35 27.1644 35 17.5C35 7.83344 27.1644 0 17.5 0ZM18.865 22.2316C17.5853 22.1331 17.0494 21.4987 16.0475 20.8884C15.4963 23.7803 14.8225 26.5541 12.8275 28C12.2106 23.6316 13.7309 20.3503 14.4375 16.8656C13.2344 14.8378 14.5819 10.7625 17.1194 11.7666C20.2409 13.0025 14.4134 19.2981 18.3269 20.0834C22.4109 20.9059 24.08 12.9959 21.5469 10.4234C17.885 6.70906 10.8938 10.3381 11.7534 15.6559C11.9634 16.9553 13.3044 17.3491 12.2894 19.145C9.94656 18.6266 9.24656 16.7781 9.33625 14.315C9.48063 10.2834 12.9587 7.46156 16.4478 7.07C20.86 6.57563 24.9987 8.68875 25.5719 12.8384C26.2172 17.5219 23.5812 22.5969 18.865 22.2316Z" fill="white"/>
</g>
<defs>
<clipPath id="clip0_2161_575">
<rect width="35" height="35" fill="white"/>
</clipPath>
</defs>
</svg>
