<svg width="50" height="50" viewBox="0 0 50 50" fill="none" xmlns="http://www.w3.org/2000/svg">
<g clip-path="url(#clip0_2001_1306)">
<path d="M48.8688 23.8688H42.6114C42.0499 15.0367 34.9633 7.95011 26.1312 7.38858V1.13122C26.1312 0.506448 25.6248 0 25 0C24.3752 0 23.8688 0.506448 23.8688 1.13122V7.38858C15.0367 7.95011 7.95011 15.0367 7.38858 23.8688H1.13122C0.506448 23.8688 0 24.3752 0 25C0 25.6248 0.506448 26.1312 1.13122 26.1312H7.38858C7.95011 34.9633 15.0367 42.0499 23.8688 42.6114V48.8688C23.8688 49.4936 24.3752 50 25 50C25.6248 50 26.1312 49.4936 26.1312 48.8688V42.6114C34.9633 42.0499 42.0499 34.9633 42.6114 26.1312H48.8688C49.4936 26.1312 50 25.6248 50 25C50 24.3752 49.4936 23.8688 48.8688 23.8688ZM40.3446 23.8688H37.4693C36.9292 17.8656 32.1344 13.0709 26.1313 12.5307V9.65543C33.7154 10.2093 39.7907 16.2846 40.3446 23.8688ZM23.8688 23.8688H14.8041C15.3281 19.1141 19.114 15.3282 23.8688 14.8042V23.8688ZM23.8688 26.1312V35.1958C19.1141 34.6718 15.3281 30.8857 14.8041 26.1312H23.8688ZM26.1312 26.1312H35.1958C34.6718 30.8859 30.8859 34.6718 26.1312 35.1958V26.1312ZM26.1312 23.8688V14.8042C30.8859 15.3282 34.6718 19.1143 35.1958 23.8688H26.1312ZM23.8688 9.65543V12.5307C17.8656 13.0708 13.0708 17.8656 12.5307 23.8688H9.65543C10.2093 16.2846 16.2846 10.2093 23.8688 9.65543ZM9.65543 26.1312H12.5307C13.0708 32.1344 17.8656 36.9291 23.8688 37.4693V40.3446C16.2846 39.7907 10.2093 33.7154 9.65543 26.1312ZM26.1312 40.3446V37.4693C32.1344 36.9292 36.9291 32.1344 37.4692 26.1312H40.3445C39.7907 33.7154 33.7154 39.7907 26.1312 40.3446Z" fill="white"/>
</g>
<defs>
<clipPath id="clip0_2001_1306">
<rect width="50" height="50" fill="white"/>
</clipPath>
</defs>
</svg>
