<svg width="35" height="35" viewBox="0 0 35 35" fill="none" xmlns="http://www.w3.org/2000/svg">
<g clip-path="url(#clip0_2161_581)">
<path d="M17.5 0C7.83562 0 0 7.83562 0 17.5C0 27.1644 7.83562 35 17.5 35C27.1644 35 35 27.1644 35 17.5C35 7.83344 27.1644 0 17.5 0ZM26.2062 13.5712C26.215 13.7572 26.2194 13.9431 26.2194 14.1291C26.2194 19.8231 21.8859 26.3878 13.9606 26.3878C11.5281 26.3878 9.26406 25.6747 7.35656 24.4519C7.69344 24.4913 8.03687 24.5131 8.38469 24.5131C10.4037 24.5131 12.2609 23.8241 13.7353 22.6691C11.8497 22.6341 10.2594 21.3872 9.71031 19.6766C9.975 19.7269 10.2419 19.7531 10.5219 19.7531C10.9156 19.7531 11.2963 19.7006 11.6572 19.6022C9.68625 19.2063 8.20094 17.465 8.20094 15.3781C8.20094 15.3606 8.20094 15.3431 8.20094 15.3234C8.78281 15.6472 9.44562 15.8397 10.1522 15.8637C8.99719 15.0916 8.23594 13.7725 8.23594 12.2784C8.23594 11.4887 8.44812 10.7494 8.81781 10.1128C10.9419 12.7203 14.1181 14.4353 17.6991 14.6147C17.6247 14.2997 17.5875 13.9694 17.5875 13.6325C17.5875 11.2547 19.5169 9.32531 21.8969 9.32531C23.135 9.32531 24.255 9.84813 25.0425 10.6859C26.0247 10.4913 26.9478 10.1325 27.7791 9.64031C27.4575 10.6466 26.775 11.4909 25.8847 12.0247C26.7553 11.9219 27.5866 11.6878 28.3587 11.3466C27.7812 12.2084 27.0484 12.9675 26.2062 13.5712Z" fill="white"/>
</g>
<defs>
<clipPath id="clip0_2161_581">
<rect width="35" height="35" fill="white"/>
</clipPath>
</defs>
</svg>
